{
  "accessors": [
    {
      "bufferView": 2,
      "componentType": 5126,
      "count": 256,
      "max": [
        6.8585910797119141,
        6.5069789886474609,
        140.29893493652344
      ],
      "min": [
        -3.7162320613861084,
        -6.5455050468444824,
        133.07357788085938
      ],
      "type": "VEC3"
    },
    {
      "bufferView": 2,
      "byteOffset": 3072,
      "componentType": 5126,
      "count": 256,
      "max": [
        0.98821413516998291,
        0.98188614845275879,
        0.92376333475112915
      ],
      "min": [
        -0.99928551912307739,
        -0.99658036231994629,
        -0.50545912981033325
      ],
      "type": "VEC3"
    },
    {
      "bufferView": 1,
      "componentType": 5126,
      "count": 256,
      "max": [
        1,
        0.16666699945926666
      ],
      "min": [
        0,
        0
      ],
      "type": "VEC2"
    },
    {
      "bufferView": 0,
      "componentType": 5125,
      "count": 1350,
      "max": [
        255
      ],
      "min": [
        0
      ],
      "type": "SCALAR"
    },
    {
      "bufferView": 2,
      "byteOffset": 6144,
      "componentType": 5126,
      "count": 3027,
      "max": [
        19.053142547607422,
        9.7062196731567383,
        150.44670104980469
      ],
      "min": [
        -9.4805984497070312,
        -9.6253662109375,
        84.548866271972656
      ],
      "type": "VEC3"
    },
    {
      "bufferView": 2,
      "byteOffset": 42468,
      "componentType": 5126,
      "count": 3027,
      "max": [
        0.9999350905418396,
        1,
        1
      ],
      "min": [
        -0.9999350905418396,
        -1,
        -1
      ],
      "type": "VEC3"
    },
    {
      "bufferView": 1,
      "byteOffset": 2048,
      "componentType": 5126,
      "count": 3027,
      "max": [
        1,
        1
      ],
      "min": [
        0.1333329975605011,
        -0
      ],
      "type": "VEC2"
    },
    {
      "bufferView": 0,
      "byteOffset": 5400,
      "componentType": 5125,
      "count": 16800,
      "max": [
        3026
      ],
      "min": [
        0
      ],
      "type": "SCALAR"
    },
    {
      "bufferView": 2,
      "byteOffset": 78792,
      "componentType": 5126,
      "count": 16,
      "max": [
        -20.434566497802734,
        3.2543439865112305,
        106.44169616699219
      ],
      "min": [
        -24.202672958374023,
        -0.016442000865936279,
        105.84157562255859
      ],
      "type": "VEC3"
    },
    {
      "bufferView": 2,
      "byteOffset": 78984,
      "componentType": 5126,
      "count": 16,
      "max": [
        0.43242484331130981,
        0.19100767374038696,
        0.98107481002807617
      ],
      "min": [
        -0.44268041849136353,
        -0.12939238548278809,
        -0.98102802038192749
      ],
      "type": "VEC3"
    },
    {
      "bufferView": 1,
      "byteOffset": 26264,
      "componentType": 5126,
      "count": 16,
      "max": [
        0.44999998807907104,
        0.39268699288368225
      ],
      "min": [
        0.40000000596046448,
        0.28830298781394958
      ],
      "type": "VEC2"
    },
    {
      "bufferView": 0,
      "byteOffset": 72600,
      "componentType": 5125,
      "count": 24,
      "max": [
        15
      ],
      "min": [
        0
      ],
      "type": "SCALAR"
    },
    {
      "bufferView": 2,
      "byteOffset": 79176,
      "componentType": 5126,
      "count": 1382,
      "max": [
        13.949856758117676,
        11.418601989746094,
        155.40792846679688
      ],
      "min": [
        -33.249599456787109,
        -11.418599128723145,
        97.031631469726562
      ],
      "type": "VEC3"
    },
    {
      "bufferView": 2,
      "byteOffset": 95760,
      "componentType": 5126,
      "count": 1382,
      "max": [
        0.99988514184951782,
        0.99992001056671143,
        0.99996262788772583
      ],
      "min": [
        -0.99999797344207764,
        -1,
        -0.99998849630355835
      ],
      "type": "VEC3"
    },
    {
      "bufferView": 1,
      "byteOffset": 26392,
      "componentType": 5126,
      "count": 1382,
      "max": [
        1,
        1
      ],
      "min": [
        0,
        0
      ],
      "type": "VEC2"
    },
    {
      "bufferView": 0,
      "byteOffset": 72696,
      "componentType": 5125,
      "count": 7308,
      "max": [
        1381
      ],
      "min": [
        0
      ],
      "type": "SCALAR"
    },
    {
      "bufferView": 2,
      "byteOffset": 112344,
      "componentType": 5126,
      "count": 886,
      "max": [
        12.511809349060059,
        2.1703999042510986,
        152.83160400390625
      ],
      "min": [
        2.6627490520477295,
        -2.3211860656738281,
        148.59182739257812
      ],
      "type": "VEC3"
    },
    {
      "bufferView": 2,
      "byteOffset": 122976,
      "componentType": 5126,
      "count": 886,
      "max": [
        0.99986851215362549,
        1,
        0.99987822771072388
      ],
      "min": [
        -0.99986845254898071,
        -1,
        -0.99987822771072388
      ],
      "type": "VEC3"
    },
    {
      "bufferView": 1,
      "byteOffset": 37448,
      "componentType": 5126,
      "count": 886,
      "max": [
        1,
        1
      ],
      "min": [
        0,
        0
      ],
      "type": "VEC2"
    },
    {
      "bufferView": 0,
      "byteOffset": 101928,
      "componentType": 5125,
      "count": 4572,
      "max": [
        885
      ],
      "min": [
        0
      ],
      "type": "SCALAR"
    },
    {
      "bufferView": 2,
      "byteOffset": 133608,
      "componentType": 5126,
      "count": 848,
      "max": [
        5.1821999549865723,
        8.3274202346801758,
        156.92848205566406
      ],
      "min": [
        -9.2943191528320312,
        -7.0124688148498535,
        148.22212219238281
      ],
      "type": "VEC3"
    },
    {
      "bufferView": 2,
      "byteOffset": 143784,
      "componentType": 5126,
      "count": 848,
      "max": [
        0.99645411968231201,
        0.99948501586914062,
        0.99878352880477905
      ],
      "min": [
        -0.99670350551605225,
        -0.99948501586914062,
        -0.99448776245117188
      ],
      "type": "VEC3"
    },
    {
      "bufferView": 1,
      "byteOffset": 44536,
      "componentType": 5126,
      "count": 848,
      "max": [
        1,
        1
      ],
      "min": [
        0,
        0
      ],
      "type": "VEC2"
    },
    {
      "bufferView": 0,
      "byteOffset": 120216,
      "componentType": 5125,
      "count": 4380,
      "max": [
        847
      ],
      "min": [
        0
      ],
      "type": "SCALAR"
    },
    {
      "bufferView": 2,
      "byteOffset": 153960,
      "componentType": 5126,
      "count": 866,
      "max": [
        8.4745912551879883,
        5.641298770904541,
        151.33622741699219
      ],
      "min": [
        -1.2251729965209961,
        -5.5314440727233887,
        150.21516418457031
      ],
      "type": "VEC3"
    },
    {
      "bufferView": 2,
      "byteOffset": 164352,
      "componentType": 5126,
      "count": 866,
      "max": [
        0.99979054927825928,
        0.96648597717285156,
        1
      ],
      "min": [
        -0.99979054927825928,
        -0.96610599756240845,
        -1
      ],
      "type": "VEC3"
    },
    {
      "bufferView": 1,
      "byteOffset": 51320,
      "componentType": 5126,
      "count": 866,
      "max": [
        1,
        1
      ],
      "min": [
        0,
        -0
      ],
      "type": "VEC2"
    },
    {
      "bufferView": 0,
      "byteOffset": 137736,
      "componentType": 5125,
      "count": 4320,
      "max": [
        865
      ],
      "min": [
        0
      ],
      "type": "SCALAR"
    },
    {
      "bufferView": 2,
      "byteOffset": 174744,
      "componentType": 5126,
      "count": 434,
      "max": [
        8.3728561401367188,
        2.9543049335479736,
        151.88558959960938
      ],
      "min": [
        8.3728561401367188,
        -2.9294290542602539,
        149.28558349609375
      ],
      "type": "VEC3"
    },
    {
      "bufferView": 2,
      "byteOffset": 179952,
      "componentType": 5126,
      "count": 434,
      "max": [
        1,
        -0,
        0
      ],
      "min": [
        1,
        -0,
        0
      ],
      "type": "VEC3"
    },
    {
      "bufferView": 1,
      "byteOffset": 58248,
      "componentType": 5126,
      "count": 434,
      "max": [
        1,
        1
      ],
      "min": [
        0,
        0
      ],
      "type": "VEC2"
    },
    {
      "bufferView": 0,
      "byteOffset": 155016,
      "componentType": 5125,
      "count": 2304,
      "max": [
        433
      ],
      "min": [
        0
      ],
      "type": "SCALAR"
    }
  ],
  "asset": {
    "extras": {
      "author": "clairenicole22 (https://sketchfab.com/clairenicole22)",
      "license": "CC-BY-4.0 (http://creativecommons.org/licenses/by/4.0/)",
      "source": "https://sketchfab.com/3d-models/character-design-french-duck-f7d9f366a8f9416a87719cdacd5384de",
      "title": "Character Design - French Duck"
    },
    "generator": "Sketchfab-7.68.0",
    "version": "2.0"
  },
  "bufferViews": [
    {
      "buffer": 0,
      "byteLength": 164232,
      "byteOffset": 0,
      "name": "floatBufferViews",
      "target": 34963
    },
    {
      "buffer": 0,
      "byteLength": 61720,
      "byteOffset": 164232,
      "byteStride": 8,
      "name": "floatBufferViews",
      "target": 34962
    },
    {
      "buffer": 0,
      "byteLength": 185160,
      "byteOffset": 225952,
      "byteStride": 12,
      "name": "floatBufferViews",
      "target": 34962
    }
  ],
  "buffers": [
    {
      "byteLength": 411112,
      "uri": "scene.bin"
    }
  ],
  "extensionsRequired": [
    "KHR_materials_pbrSpecularGlossiness"
  ],
  "extensionsUsed": [
    "KHR_materials_pbrSpecularGlossiness"
  ],
  "images": [
    {
      "uri": "textures/initialShadingGroup_diffuse.jpeg"
    },
    {
      "uri": "textures/lambert3SG_diffuse.jpeg"
    },
    {
      "uri": "textures/phong1SG_diffuse.jpeg"
    }
  ],
  "materials": [
    {
      "doubleSided": true,
      "emissiveFactor": [
        0,
        0,
        0
      ],
      "extensions": {
        "KHR_materials_pbrSpecularGlossiness": {
          "diffuseFactor": [
            0.57999999999999996,
            0.27000000000000002,
            0.070000000000000007,
            1
          ],
          "glossinessFactor": 1,
          "specularFactor": [
            0,
            0,
            0
          ]
        }
      },
      "name": "blinn1SG"
    },
    {
      "doubleSided": true,
      "emissiveFactor": [
        0,
        0,
        0
      ],
      "extensions": {
        "KHR_materials_pbrSpecularGlossiness": {
          "diffuseFactor": [
            1,
            1,
            1,
            1
          ],
          "diffuseTexture": {
            "index": 0,
            "texCoord": 0
          },
          "glossinessFactor": 0,
          "specularFactor": [
            0,
            0,
            0
          ]
        }
      },
      "name": "initialShadingGroup"
    },
    {
      "doubleSided": true,
      "emissiveFactor": [
        0,
        0,
        0
      ],
      "extensions": {
        "KHR_materials_pbrSpecularGlossiness": {
          "diffuseFactor": [
            0,
            0,
            0,
            1
          ],
          "glossinessFactor": 0,
          "specularFactor": [
            0,
            0,
            0
          ]
        }
      },
      "name": "lambert2SG"
    },
    {
      "doubleSided": true,
      "emissiveFactor": [
        0,
        0,
        0
      ],
      "extensions": {
        "KHR_materials_pbrSpecularGlossiness": {
          "diffuseFactor": [
            1,
            1,
            1,
            1
          ],
          "diffuseTexture": {
            "index": 1,
            "texCoord": 0
          },
          "glossinessFactor": 0,
          "specularFactor": [
            0,
            0,
            0
          ]
        }
      },
      "name": "lambert3SG"
    },
    {
      "doubleSided": true,
      "emissiveFactor": [
        0,
        0,
        0
      ],
      "extensions": {
        "KHR_materials_pbrSpecularGlossiness": {
          "diffuseFactor": [
            1,
            1,
            1,
            1
          ],
          "diffuseTexture": {
            "index": 2,
            "texCoord": 0
          },
          "glossinessFactor": 0.006179301431721353,
          "specularFactor": [
            0,
            0,
            0
          ]
        }
      },
      "name": "phong1SG"
    },
    {
      "doubleSided": true,
      "emissiveFactor": [
        0,
        0,
        0
      ],
      "extensions": {
        "KHR_materials_pbrSpecularGlossiness": {
          "diffuseFactor": [
            0.12,
            0.12,
            0.12,
            1
          ],
          "glossinessFactor": 0.10298835719535589,
          "specularFactor": [
            0,
            0,
            0
          ]
        }
      },
      "name": "phong2SG"
    },
    {
      "alphaMode": "BLEND",
      "doubleSided": true,
      "emissiveFactor": [
        0,
        0,
        0
      ],
      "extensions": {
        "KHR_materials_pbrSpecularGlossiness": {
          "diffuseFactor": [
            0.67000000000000004,
            1,
            0.97999999999999998,
            0.46512957317073172
          ],
          "glossinessFactor": 1,
          "specularFactor": [
            0,
            0,
            0
          ]
        }
      },
      "name": "phongE1SG"
    }
  ],
  "meshes": [
    {
      "primitives": [
        {
          "attributes": {
            "NORMAL": 1,
            "POSITION": 0,
            "TEXCOORD_0": 2
          },
          "indices": 3,
          "material": 4,
          "mode": 4
        }
      ]
    },
    {
      "primitives": [
        {
          "attributes": {
            "NORMAL": 5,
            "POSITION": 4,
            "TEXCOORD_0": 6
          },
          "indices": 7,
          "material": 0,
          "mode": 4
        }
      ]
    },
    {
      "primitives": [
        {
          "attributes": {
            "NORMAL": 9,
            "POSITION": 8,
            "TEXCOORD_0": 10
          },
          "indices": 11,
          "material": 1,
          "mode": 4
        }
      ]
    },
    {
      "primitives": [
        {
          "attributes": {
            "NORMAL": 13,
            "POSITION": 12,
            "TEXCOORD_0": 14
          },
          "indices": 15,
          "material": 1,
          "mode": 4
        }
      ]
    },
    {
      "primitives": [
        {
          "attributes": {
            "NORMAL": 17,
            "POSITION": 16,
            "TEXCOORD_0": 18
          },
          "indices": 19,
          "material": 2,
          "mode": 4
        }
      ]
    },
    {
      "primitives": [
        {
          "attributes": {
            "NORMAL": 21,
            "POSITION": 20,
            "TEXCOORD_0": 22
          },
          "indices": 23,
          "material": 3,
          "mode": 4
        }
      ]
    },
    {
      "primitives": [
        {
          "attributes": {
            "NORMAL": 25,
            "POSITION": 24,
            "TEXCOORD_0": 26
          },
          "indices": 27,
          "material": 5,
          "mode": 4
        }
      ]
    },
    {
      "primitives": [
        {
          "attributes": {
            "NORMAL": 29,
            "POSITION": 28,
            "TEXCOORD_0": 30
          },
          "indices": 31,
          "material": 6,
          "mode": 4
        }
      ]
    }
  ],
  "nodes": [
    {
      "children": [
        1
      ],
      "name": "RootNode (gltf orientation matrix)",
      "rotation": [
        -0.70710678118654746,
        -0,
        -0,
        0.70710678118654757
      ]
    },
    {
      "children": [
        2
      ],
      "name": "RootNode (model correction matrix)"
    },
    {
      "children": [
        3,
        4,
        5,
        6,
        7,
        8,
        9,
        10
      ],
      "name": "duckcharacter.obj.cleaner.materialmerger.gles"
    },
    {
      "mesh": 0,
      "name": ""
    },
    {
      "mesh": 1,
      "name": ""
    },
    {
      "mesh": 2,
      "name": ""
    },
    {
      "mesh": 3,
      "name": ""
    },
    {
      "mesh": 4,
      "name": ""
    },
    {
      "mesh": 5,
      "name": ""
    },
    {
      "mesh": 6,
      "name": ""
    },
    {
      "mesh": 7,
      "name": ""
    }
  ],
  "samplers": [
    {
      "magFilter": 9729,
      "minFilter": 9987,
      "wrapS": 10497,
      "wrapT": 10497
    }
  ],
  "scene": 0,
  "scenes": [
    {
      "name": "OSG_Scene",
      "nodes": [
        0
      ]
    }
  ],
  "textures": [
    {
      "sampler": 0,
      "source": 0
    },
    {
      "sampler": 0,
      "source": 1
    },
    {
      "sampler": 0,
      "source": 2
    }
  ]
}

